<?xml version="1.0" standalone="no"?>
<!DOCTYPE svg PUBLIC "-//W3C//DTD SVG 20010904//EN" "http://www.w3.org/TR/2001/REC-SVG-20010904/DTD/svg10.dtd">
<!-- Created using Karbon, part of Calligra: http://www.calligra.org/karbon -->
<svg xmlns="http://www.w3.org/2000/svg" xmlns:xlink="http://www.w3.org/1999/xlink" width="102.4pt" height="102.4pt">
<defs>
  <linearGradient id="gradient0" gradientTransform="translate(-0.3, -0.348)" gradientUnits="objectBoundingBox" x1="0.14987867000" y1="0.85755366000" x2="0.99854870000" y2="0.00888363000" spreadMethod="pad">
   <stop stop-color="#f5e7b8" offset="0.00000000000" stop-opacity="1.00000000000"/>
   <stop stop-color="#e6d695" offset="0.99510000000" stop-opacity="1.00000000000"/>
  </linearGradient>
  <linearGradient id="gradient1" gradientTransform="translate(-22.479, -93.082)" gradientUnits="objectBoundingBox" x1="0.78169424819" y1="3.71471687266" x2="1.23248156967" y2="2.89170572642" spreadMethod="pad">
   <stop stop-color="#8a2121" offset="0.31360000372" stop-opacity="1.00000000000"/>
   <stop stop-color="#8e2525" offset="0.42649999261" stop-opacity="1.00000000000"/>
   <stop stop-color="#9a3130" offset="0.54259997606" stop-opacity="1.00000000000"/>
   <stop stop-color="#af4543" offset="0.66009998322" stop-opacity="1.00000000000"/>
   <stop stop-color="#cc605d" offset="0.77789998055" stop-opacity="1.00000000000"/>
   <stop stop-color="#d56966" offset="0.81069999933" stop-opacity="1.00000000000"/>
   <stop stop-color="#e29390" offset="1.00000000000" stop-opacity="1.00000000000"/>
  </linearGradient>
  <filter id="filter0" filterUnits="objectBoundingBox" primitiveUnits="objectBoundingBox" x="-0.10000000000" y="-0.10000000000" width="1.20000000000" height="1.20000000000">
   <feGaussianBlur result="" in="" x="0.00000000000" y="0.00000000000" width="1.00000000000" height="1.00000000000" stdDeviation="0.0265045, 0.0236571"/>
  </filter>
  <linearGradient id="gradient2" gradientTransform="translate(-20.6714, -93.187)" gradientUnits="objectBoundingBox" x1="0.72623051092" y1="4.04229514479" x2="0.72623051092" y2="3.38544790193" spreadMethod="pad">
   <stop stop-color="#dedede" offset="0.00000000000" stop-opacity="1.00000000000"/>
   <stop stop-color="#ffffff" offset="1.00000000000" stop-opacity="1.00000000000"/>
  </linearGradient>
  <filter id="filter1" filterUnits="objectBoundingBox" primitiveUnits="objectBoundingBox" x="-0.06273070000" y="-0.20440804000" width="1.12546140000" height="1.40881610000">
   <feGaussianBlur result="" in="" x="0.00000000000" y="0.00000000000" width="1.00000000000" height="1.00000000000" stdDeviation="0.0325755, 0.0996301"/>
  </filter>
  <clipPath id="clippath0" clipPathUnits="userSpaceOnUse">
   <path d="M81.4886 2.34764C81.4886 2.34764 81.9446 16.3416 79.9766 20.3725L2.38556 29.3282C-0.615499 29.806 0.935403 10.5174 4.35888 10.2038L81.4886 2.34764Z"/>
  </clipPath>
  <linearGradient id="gradient3" gradientTransform="translate(-20.4, -90.303)" gradientUnits="objectBoundingBox" x1="0.22260722113" y1="3.51372313443" x2="1.22260254096" y2="3.51372313443" spreadMethod="pad">
   <stop stop-color="#2e3436" offset="0.31949999928" stop-opacity="1.00000000000"/>
   <stop stop-color="#888a85" offset="1.00000000000" stop-opacity="1.00000000000"/>
  </linearGradient>
  <radialGradient id="gradient4" gradientTransform="matrix(1 0 0 0.9966 -10.5304 -3.28388)" gradientUnits="objectBoundingBox" cx="0.22312525446" cy="-0.20159074703" fx="0.00000000000" fy="0.00000000000" r="0.95395279694" spreadMethod="pad">
   <stop stop-color="#e29390" offset="0.05330000073" stop-opacity="1.00000000000"/>
   <stop stop-color="#a71b1b" offset="0.66269999743" stop-opacity="1.00000000000"/>
   <stop stop-color="#8a2121" offset="0.90530002117" stop-opacity="1.00000000000"/>
  </radialGradient>
  <linearGradient id="gradient5" gradientTransform="translate(-7.50036, -10.227)" gradientUnits="objectBoundingBox" x1="0.46995439083" y1="0.59862530722" x2="1.01399880259" y2="0.58708285583" spreadMethod="pad">
   <stop stop-color="#8a2121" offset="0.31360000372" stop-opacity="1.00000000000"/>
   <stop stop-color="#8c2323" offset="0.53670001030" stop-opacity="1.00000000000"/>
   <stop stop-color="#942a2a" offset="0.63990002871" stop-opacity="1.00000000000"/>
   <stop stop-color="#a03636" offset="0.71850001812" stop-opacity="1.00000000000"/>
   <stop stop-color="#b34846" offset="0.78450000286" stop-opacity="1.00000000000"/>
   <stop stop-color="#ca5e5c" offset="0.84219998121" stop-opacity="1.00000000000"/>
   <stop stop-color="#d56966" offset="0.86390000582" stop-opacity="1.00000000000"/>
   <stop stop-color="#e29390" offset="0.91720002890" stop-opacity="1.00000000000"/>
   <stop stop-color="#7a1212" offset="1.00000000000" stop-opacity="1.00000000000"/>
  </linearGradient>
  <linearGradient id="gradient6" gradientTransform="translate(-11.839, -9.817)" gradientUnits="objectBoundingBox" x1="1.07552575434" y1="0.61065735969" x2="1.50774763792" y2="0.59982168874" spreadMethod="pad">
   <stop stop-color="#9c0f0f" offset="0.00000000000" stop-opacity="1.00000000000"/>
   <stop stop-color="#ffffff" offset="0.31600001454" stop-opacity="1.00000000000"/>
   <stop stop-color="#bf0303" offset="0.60290002823" stop-opacity="1.00000000000"/>
  </linearGradient>
  <filter id="filter2" filterUnits="objectBoundingBox" primitiveUnits="objectBoundingBox" x="-0.10000000000" y="-0.10000000000" width="1.20000000000" height="1.20000000000">
   <feGaussianBlur result="" in="" x="0.00000000000" y="0.00000000000" width="1.00000000000" height="1.00000000000" stdDeviation="0.00523358, 0.0196992"/>
  </filter>
  <clipPath id="clippath1" clipPathUnits="userSpaceOnUse">
   <path d="M84.3031 -0.0472611L77.4194 -39.318C77.4194 -39.318 -6.66574 -47.7881 -4.20275 -21.7189C-1.73975 4.35034 0.697508 10.5965 4.12098 10.2819L80.9971 2.4534L82.1998 2.33072C84.0742 1.96821 84.5125 1.56327 84.3031 -0.0472611Z"/>
  </clipPath>
  <linearGradient id="gradient7" gradientTransform="translate(-20.6735, -90.669)" gradientUnits="objectBoundingBox" x1="0.21803108257" y1="3.81850799889" x2="1.21803111017" y2="3.81850799889" spreadMethod="pad">
   <stop stop-color="#610000" offset="0.00000000000" stop-opacity="1.00000000000"/>
   <stop stop-color="#540000" offset="1.00000000000" stop-opacity="1.00000000000"/>
  </linearGradient>
  <filter id="filter3" filterUnits="objectBoundingBox" primitiveUnits="objectBoundingBox" x="-0.10000000000" y="-0.10000000000" width="1.20000000000" height="1.20000000000">
   <feGaussianBlur result="" in="" x="0.00000000000" y="0.00000000000" width="1.00000000000" height="1.00000000000" stdDeviation="0.00475456, 0.00911779"/>
  </filter>
  <filter id="filter4" filterUnits="objectBoundingBox" primitiveUnits="objectBoundingBox" x="-0.10000000000" y="-0.10000000000" width="1.20000000000" height="1.20000000000">
   <feGaussianBlur result="" in="" x="0.00000000000" y="0.00000000000" width="1.00000000000" height="1.00000000000" stdDeviation="0.0047545, 0.00911802"/>
  </filter>
  <radialGradient id="gradient8" gradientTransform="matrix(0.9963 0.0481 0.0026 0.8585 -25.7295 -63.7956)" gradientUnits="objectBoundingBox" cx="0.24199250522" cy="0.95179665786" fx="0.00000000000" fy="0.00000000000" r="4.36821868007" spreadMethod="pad">
   <stop stop-color="#ffffff" offset="0.48519998789" stop-opacity="1.00000000000"/>
   <stop stop-color="#d3d7cf" offset="0.90530002117" stop-opacity="1.00000000000"/>
  </radialGradient>
  <radialGradient id="gradient9" gradientTransform="matrix(0.9963 0.0481 0.0026 0.8585 -51.3135 -59.517)" gradientUnits="objectBoundingBox" cx="0.38871180767" cy="0.89427139279" fx="0.00000000000" fy="0.00000000000" r="4.58188576669" spreadMethod="pad">
   <stop stop-color="#ffffff" offset="0.48519998789" stop-opacity="1.00000000000"/>
   <stop stop-color="#d3d7cf" offset="0.90530002117" stop-opacity="1.00000000000"/>
  </radialGradient>
  <radialGradient id="gradient10" gradientTransform="matrix(0.9963 0.0481 0.0026 0.8585 -77.9156 -69.5573)" gradientUnits="objectBoundingBox" cx="0.25448291924" cy="1.17750344743" fx="0.00000000000" fy="0.00000000000" r="7.08403201127" spreadMethod="pad">
   <stop stop-color="#ffffff" offset="0.48519998789" stop-opacity="1.00000000000"/>
   <stop stop-color="#d3d7cf" offset="0.90530002117" stop-opacity="1.00000000000"/>
  </radialGradient>
  <filter id="filter5" filterUnits="objectBoundingBox" primitiveUnits="objectBoundingBox" x="-0.10000000000" y="-0.10000000000" width="1.20000000000" height="1.20000000000">
   <feGaussianBlur result="" in="" x="0.00000000000" y="0.00000000000" width="1.00000000000" height="1.00000000000" stdDeviation="0.00202825, 0.00740364"/>
  </filter>
  <linearGradient id="gradient11" gradientTransform="translate(-26.491, -99.333)" gradientUnits="objectBoundingBox" x1="0.31356012410" y1="11.90709692237" x2="1.32562430540" y2="11.90709692237" spreadMethod="pad">
   <stop stop-color="#b3b3b3" offset="0.00000000000" stop-opacity="0.14901960784"/>
   <stop stop-color="#919191" offset="0.66884249449" stop-opacity="1.00000000000"/>
   <stop stop-color="#bdbdbd" offset="1.00000000000" stop-opacity="0.39240100710"/>
  </linearGradient>
  <linearGradient id="gradient12" gradientTransform="translate(-26.491, -97.333)" gradientUnits="objectBoundingBox" x1="0.31356012410" y1="11.67742305926" x2="1.32562430540" y2="11.67742305926" spreadMethod="pad">
   <stop stop-color="#696969" offset="0.00000000000" stop-opacity="0.15190356298"/>
   <stop stop-color="#919191" offset="0.50000000000" stop-opacity="1.00000000000"/>
   <stop stop-color="#bdbdbd" offset="1.00000000000" stop-opacity="0.39240100710"/>
  </linearGradient>
  <linearGradient id="gradient13" gradientTransform="translate(-26.491, -95.333)" gradientUnits="objectBoundingBox" x1="0.60629257321" y1="11.25803203950" x2="1.32562430540" y2="11.44774873679" spreadMethod="pad">
   <stop stop-color="#696969" offset="0.00000000000" stop-opacity="0.15190356298"/>
   <stop stop-color="#919191" offset="0.50000000000" stop-opacity="1.00000000000"/>
   <stop stop-color="#bdbdbd" offset="1.00000000000" stop-opacity="0.39240100710"/>
  </linearGradient>
  <linearGradient id="gradient14" gradientTransform="translate(-26.491, -101.333)" gradientUnits="objectBoundingBox" x1="0.43247106488" y1="12.09484841525" x2="1.32562430540" y2="12.13677078548" spreadMethod="pad">
   <stop stop-color="#696969" offset="0.00000000000" stop-opacity="0.15190356298"/>
   <stop stop-color="#919191" offset="0.50000000000" stop-opacity="1.00000000000"/>
   <stop stop-color="#bdbdbd" offset="1.00000000000" stop-opacity="0.39240100710"/>
  </linearGradient>
  <linearGradient id="gradient15" gradientTransform="translate(-26.491, -103.333)" gradientUnits="objectBoundingBox" x1="0.31356012410" y1="12.36644464860" x2="1.32562430540" y2="12.36644464860" spreadMethod="pad">
   <stop stop-color="#696969" offset="0.00000000000" stop-opacity="0.15190356298"/>
   <stop stop-color="#919191" offset="0.60461980104" stop-opacity="1.00000000000"/>
   <stop stop-color="#bdbdbd" offset="1.00000000000" stop-opacity="0.39240100710"/>
  </linearGradient>
  <linearGradient id="gradient16" gradientTransform="translate(-26.491, -105.333)" gradientUnits="objectBoundingBox" x1="0.54151773988" y1="12.48940169959" x2="1.09143830267" y2="12.59611851171" spreadMethod="pad">
   <stop stop-color="#696969" offset="0.00000000000" stop-opacity="0.15190356298"/>
   <stop stop-color="#919191" offset="0.50000000000" stop-opacity="1.00000000000"/>
   <stop stop-color="#bdbdbd" offset="1.00000000000" stop-opacity="0.39240100710"/>
  </linearGradient>
  <linearGradient id="gradient17" gradientTransform="translate(-26.491, -107.333)" gradientUnits="objectBoundingBox" x1="0.31356012410" y1="12.82579237483" x2="1.32562430540" y2="12.82579237483" spreadMethod="pad">
   <stop stop-color="#696969" offset="0.00000000000" stop-opacity="0.15190356298"/>
   <stop stop-color="#919191" offset="0.67074137926" stop-opacity="1.00000000000"/>
   <stop stop-color="#bdbdbd" offset="1.00000000000" stop-opacity="0.39240100710"/>
  </linearGradient>
  <linearGradient id="gradient18" gradientTransform="translate(-26.491, -109.333)" gradientUnits="objectBoundingBox" x1="0.79812578359" y1="13.05546623794" x2="1.32562430540" y2="13.05546623794" spreadMethod="pad">
   <stop stop-color="#696969" offset="0.00000000000" stop-opacity="0.15190356298"/>
   <stop stop-color="#919191" offset="0.50000000000" stop-opacity="1.00000000000"/>
   <stop stop-color="#bdbdbd" offset="1.00000000000" stop-opacity="0.39240100710"/>
  </linearGradient>
  <linearGradient id="gradient19" gradientTransform="translate(-19.7069, -101.702)" gradientUnits="objectBoundingBox" x1="4.43740503848" y1="5.90288496212" x2="4.43740503848" y2="4.90284963046" spreadMethod="pad">
   <stop stop-color="#9c0f0f" offset="0.00000000000" stop-opacity="1.00000000000"/>
   <stop stop-color="#ff8080" offset="1.00000000000" stop-opacity="1.00000000000"/>
  </linearGradient>
  <filter id="filter6" filterUnits="objectBoundingBox" primitiveUnits="objectBoundingBox" x="-0.10000000000" y="-0.10000000000" width="1.20000000000" height="1.20000000000">
   <feGaussianBlur result="" in="" x="0.00000000000" y="0.00000000000" width="1.00000000000" height="1.00000000000" stdDeviation="0.0321531, 0.00775802"/>
  </filter>
 </defs>
<g id="layer0">
  <path id="shape0" transform="translate(0.774584, 0.193646)" fill="url(#gradient0)" d="M127.357 2.12085C127.357 0.950056 126.406 0 125.234 0L2.12304 0C0.951039 0.00149145 0 0.950056 0 2.12085L0 63.6135C0 98.7461 28.5103 127.225 63.6778 127.225L125.234 127.225C126.406 127.225 127.357 126.187 127.357 125.017Z"/>
  <g id="g69" transform="translate(21.8621, 91.6401)" fill="none" display="none">
   <g id="g71" transform="" fill="none">
    <path id="path88" transform="translate(0.616909, 0.441942)" fill="url(#gradient1)" d="M90.463 18.938L89.617 0L89.513 0.104C89.513 0.104 90.029 15.275 87.802 19.645L0 29.354L0.318 31.311L87.121 22.474C89.241 22.28 90.702 20.683 90.463 18.938Z"/>
   </g>
  </g>
  <g id="group0" transform="translate(-4.166, -1.30612)" fill="none">
   <path id="path4186" transform="matrix(0.987065 0 0 0.945158 23.337 10.8441)" fill="#000000" filter="url(#filter0)" opacity="0.60000000000" d="M79.4282 0.00534271C79.2273 0.0131057 78.9995 0.0405097 78.7654 0.0629935L6.68825 5.8569L5.58361 6.23163L4.58945 6.2028L2.79442 6.37575C1.45914 6.50489 0.506288 8.91838 0.226153 10.469C-0.0539815 12.0195 0.00522685 20.9037 0.00522685 20.9037L9.67075 106.659C10.0914 108.614 10.9059 111.896 12.8466 111.588L13.537 111.502L13.537 111.531L90.226 103.373C92.0994 103.194 93.3921 101.726 93.1809 100.116L92.4352 82.7342L93.2913 82.6477C95.1657 82.2852 95.5996 81.8657 95.3901 80.2552L81.6375 1.70604C81.4534 0.296825 80.8342 -0.0489985 79.4282 0.00534271Z"/>
   <path id="path2797" transform="translate(35.8655, 86.5345)" fill="url(#gradient2)" d="M80.7005 0C80.7005 0 81.1565 13.9939 79.1885 18.0249L1.59741 26.9806C-1.40366 27.4584 0.147247 8.16981 3.57072 7.85526Z"/>
   <g id="g13" transform="translate(23.9455, 89.987)" fill="none">
    <g id="g21" transform="" fill="none" filter="url(#filter1)" clip-path="url(#clippath0)">
     <path id="path28" transform="translate(11.6802, -6.11273)" fill="url(#gradient3)" d="M4.66334 11.4019L80.9854 3.62877C80.9757 1.97396 80.9403 0 80.9403 0L2.95867 7.85619C-0.204994 8.14582 -0.915493 25.5167 1.23456 27.6392C0.608898 22.351 2.11738 11.6353 4.66334 11.4019Z"/>
    </g>
   </g>
   <path id="path37" transform="translate(26.9039, 3.8062)" fill="url(#gradient4)" d="M92.7144 80.2544L78.9472 1.71284C78.7368 0.102311 77.9601 -0.128292 76.0875 0.0515787L4.01076 5.85263L2.90613 6.23082L1.89428 6.20407L0.117153 6.36365C-1.21812 6.49278 9.3015 110.705 9.3015 110.705L10.559 109.709C7.55795 110.187 9.10885 90.8981 12.5323 90.5836L89.4085 82.7551L90.6112 82.6324C92.4855 82.2699 92.9238 81.8649 92.7144 80.2544Z"/>
   <path id="path58" transform="translate(24.2262, 10.0112)" fill="url(#gradient5)" d="M13.2367 103.504C10.2356 103.982 11.7865 84.6931 15.21 84.3786C15.21 84.3786 4.57374 0.00276724 4.57197 0L2.79484 0.159577C1.45956 0.288715 0.493673 2.71558 0.213538 4.26616C-0.0665961 5.81673 0.00940253 14.7014 0.00940253 14.7014L9.67272 100.44C10.0934 102.394 10.8913 105.696 12.832 105.387L15.962 105.031L16.8714 103.084Z"/>
   <path id="path67" transform="translate(28.0603, 9.63301)" fill="url(#gradient6)" opacity="0.50000000000" d="M11.3759 84.7559L14.4972 84.4395L3.17427 0L2.85525 0.0258275L1.75062 0.404017L0.738777 0.377267L0 0.44368L11.0711 84.8379C11.17 84.7946 11.2725 84.766 11.3759 84.7559Z"/>
   <g id="g90" transform="translate(24.2147, 90.8624)" fill="none" filter="url(#filter2)" clip-path="url(#clippath1)">
    <path id="path97" transform="translate(11.6527, -6.65047)" fill="url(#gradient7)" d="M81.6477 1.33934L80.445 1.46202L3.56884 9.29146C1.35427 9.49439 -0.0755613 17.6402 0.00308844 23.2365C0.0746685 17.7057 1.46827 10.3716 3.56884 10.177L80.445 2.34846L81.6477 2.22578C83.4566 1.87711 83.9215 1.47678 83.7633 0C83.6263 0.779438 83.0289 1.07184 81.6477 1.33934Z"/>
   </g>
   <g id="g106" transform="translate(32.3277, 33.2561)" fill="none">
    <g id="g108" transform="translate(1.33227e-14, 2.03916)" fill="none" filter="url(#filter3)">
     <path id="path110" transform="translate(8.39023, -4.4571)" fill="#e20800" d="M15.8332 18.0228C15.4302 17.1299 15.2534 17.0248 14.0649 17.1742L8.10957 17.9223C7.12954 18.044 6.91038 18.1999 6.75043 19.1113L5.94714 23.6837C5.6025 25.6502 5.47171 26.8199 5.5318 27.2866C5.59808 27.793 5.82696 28.0227 6.78136 27.9969L8.10073 27.9692C8.40561 28.1491 8.4931 28.8289 8.15906 29.0383C7.12336 29.0752 5.90031 29.2154 4.04718 29.3897C2.75255 29.5391 1.35276 29.7891 0.303805 29.9579C0.0484142 29.8149 -0.113304 29.1499 0.0961342 28.9082L1.36779 28.6324C2.29479 28.4387 3.09808 27.8723 3.4551 26.2904C3.91374 24.2703 4.66224 21.4108 5.70147 16.5294L8.21915 4.84431C8.5691 3.29373 8.699 2.48293 8.49487 1.8437C9.39006 1.42861 9.95386 0.600288 10.3118 0.00902191C10.5451 -0.0232625 10.8305 0.0219357 10.9463 0.295892C11.6965 2.0291 12.5785 3.83334 13.4136 5.5684L21.184 21.7088C22.8683 25.2324 23.4843 25.8144 25.2561 25.8227L26.3713 25.8227C26.685 26.0035 26.7027 26.7009 26.526 26.8955C24.8478 27.0053 23.4233 27.1252 21.6046 27.3383C19.6684 27.5661 18.1538 27.829 16.9961 28.0079C16.6523 27.876 16.5189 27.1971 16.769 26.9508L17.9152 26.688C18.7458 26.5025 19.2725 26.1815 19.2142 25.7526C19.1497 25.2859 18.8422 24.5443 18.3818 23.5582ZM7.52456 15.2823C7.3381 16.2785 7.38228 16.3163 8.47896 16.1761L13.3243 15.5637C14.4696 15.417 14.527 15.239 14.0163 14.1561L10.9781 7.65859C10.5327 6.70942 10.0307 5.64404 9.73205 5.18283L9.65429 5.19206C9.56327 5.41344 9.30434 6.45484 9.03834 7.74806Z"/>
     <path id="path112" transform="translate(31.0102, -8.39618)" fill="#e20800" d="M2.38424 6.63047C2.02987 4.18331 1.95299 3.94072 0.651293 3.36329L0.218277 3.16958C0.000885713 3.07365 -0.0821826 2.49622 0.0998607 2.34402C0.959706 1.84407 2.79428 1.04158 4.18965 0.00386123C4.3496 -0.0164318 4.52104 0.0426025 4.62443 0.196645C4.75787 1.65313 4.95317 3.52748 5.22093 5.35201L6.383 13.2562C6.48905 13.9738 6.67728 14.1205 6.91764 14.09C7.87735 13.3216 9.38672 12.3522 11.3768 12.0912C16.0357 11.4824 19.7747 14.7265 20.5134 19.4336C21.4113 25.1663 18.0382 29.6696 12.4912 30.3153C10.9659 30.4914 9.77113 30.3236 8.91305 30.1612C8.00814 29.9601 7.43991 29.7627 7.11118 29.8005C6.78332 29.8393 6.50849 30.223 6.34677 30.5468C6.31142 30.5947 6.27166 30.5994 6.19036 30.6086C6.02775 30.6279 5.8519 30.5597 5.74497 30.3992C5.69813 29.7932 5.61948 28.9704 5.29958 26.7418ZM8.00814 24.2854C8.2273 25.7825 8.75045 27.072 9.57936 27.8921C10.41 28.7158 11.596 29.1023 12.9162 28.9492C16.8028 28.4916 17.8031 24.8518 17.2358 21.1511C16.5544 16.7484 13.86 13.6242 9.82238 14.1472C8.60199 14.3031 7.67321 14.7246 7.16066 15.1757C6.80011 15.5244 6.78774 15.9976 7.03076 17.6496Z"/>
     <path id="path114" transform="translate(54.5316, 0.900686)" fill="#e20800" d="M12.5798 0.316688C12.9704 0.572196 13.3813 1.2225 13.5086 1.95305C13.6394 2.7288 13.353 3.6014 12.8458 3.66597C12.6337 3.69364 12.4066 3.6346 12.2016 3.4409C11.0731 2.39765 9.32954 1.48169 7.60278 1.70584C4.67241 2.08772 2.21306 4.80238 2.94654 9.35541C3.49001 12.7241 6.42303 16.4958 10.9644 15.959C13.437 15.6666 14.5257 14.3752 15.2592 12.7683C15.5862 12.6401 16.0254 12.9002 16.1349 13.2886C15.23 16.708 12.2228 18.3139 9.74841 18.6017C7.49762 18.8646 5.30161 18.3618 3.58369 17.0511C1.8799 15.7468 0.572904 13.7387 0.128401 10.9327C-0.607725 6.29576 1.76502 0.979902 8.70564 0.0759381C9.67241 -0.0504324 11.3523 -0.04951 12.5798 0.316688Z"/>
    </g>
    <g id="g116" transform="translate(0.108255, 0)" fill="none" filter="url(#filter4)">
     <path id="path118" transform="translate(8.37693, -4.28548)" fill="#8c0000" d="M15.8169 17.9745C15.4139 17.0853 15.2371 16.9811 14.0494 17.1314L8.10123 17.8869C7.12208 18.0095 6.90292 18.1664 6.74297 19.0749L5.94145 23.6381C5.59504 25.5982 5.46602 26.7688 5.52611 27.2318C5.59062 27.7382 5.82038 27.967 6.77478 27.9384L8.09062 27.9107C8.3955 28.0915 8.48387 28.7658 8.15071 28.977C7.11501 29.0158 5.89373 29.1587 4.04237 29.334C2.74951 29.4871 1.3506 29.7389 0.303413 29.905C0.0480219 29.7648 -0.112812 29.1016 0.0957419 28.8636L1.36651 28.5841C2.29352 28.3885 3.09504 27.8212 3.45117 26.243C3.90981 24.2285 4.65566 21.3727 5.6949 16.5005L8.20904 4.83842C8.5581 3.28877 8.68977 2.47981 8.48475 1.84243C9.37818 1.42642 9.94198 0.599016 10.2981 0.00959474C10.5323 -0.0236121 10.8151 0.0197413 10.9335 0.293698C11.6838 2.02138 12.5631 3.821 13.399 5.55053L21.1624 21.6411C22.845 25.1555 23.4591 25.7329 25.2292 25.7394L26.3435 25.7348C26.6573 25.9174 26.6749 26.612 26.4973 26.8075C24.8218 26.9182 23.3973 27.0446 21.5821 27.2577C19.6477 27.4864 18.1339 27.7511 16.978 27.9319C16.6343 27.801 16.5026 27.1248 16.7518 26.8767L17.8971 26.611C18.726 26.4266 19.2527 26.1028 19.1935 25.6785C19.1299 25.209 18.8232 24.4683 18.3628 23.4896ZM7.51621 15.2543C7.32975 16.2477 7.37217 16.2856 8.46973 16.1444L13.3098 15.5246C14.4542 15.377 14.5134 15.199 14.0017 14.1197L10.9671 7.64163C10.5217 6.69801 10.0197 5.63446 9.72106 5.17326L9.64241 5.18341C9.55315 5.40386 9.29423 6.44434 9.02912 7.73572Z"/>
     <path id="path120" transform="translate(30.9723, -8.23845)" fill="#8c0000" d="M2.38372 6.61727C2.02847 4.17749 1.95159 3.93397 0.651661 3.35931L0.216878 3.16745C0.000370562 3.07244 -0.0809303 2.49685 0.0984618 2.34558C0.95919 1.84471 2.79023 1.04221 4.1856 0.00449372C4.34466 -0.0176442 4.5161 0.0413902 4.62126 0.195433C4.75294 1.64823 4.94735 3.51981 5.216 5.33973L6.37719 13.2236C6.48235 13.9385 6.66969 14.0851 6.91094 14.0528C7.868 13.2854 9.37736 12.3159 11.3648 12.053C16.0193 11.4378 19.7538 14.6672 20.49 19.3632C21.3878 25.0803 18.0191 29.5807 12.4801 30.2329C10.9557 30.4118 9.76089 30.2449 8.90547 30.0844C8.00144 29.8842 7.43233 29.6914 7.10536 29.7283C6.7775 29.767 6.50179 30.1489 6.34184 30.4745C6.30649 30.5207 6.26672 30.5253 6.18454 30.5373C6.02282 30.5566 5.84785 30.4884 5.74092 30.327C5.6932 29.7219 5.61632 28.9018 5.29465 26.6788ZM7.99967 24.2224C8.21883 25.7149 8.7411 27.0017 9.5709 27.8189C10.3998 28.6371 11.5849 29.0217 12.9025 28.8649C16.7863 28.4037 17.7867 24.7703 17.2176 21.0807C16.538 16.6863 13.8454 13.575 9.81038 14.1036C8.5944 14.2604 7.66563 14.6838 7.15396 15.1348C6.79429 15.4835 6.78104 15.9558 7.02406 17.6023Z"/>
     <path id="path122" transform="translate(54.4688, 0.986936)" fill="#8c0000" d="M12.5661 0.313161C12.9558 0.566824 13.3676 1.21436 13.4931 1.94306C13.6239 2.71697 13.3393 3.58772 12.8312 3.65322C12.6182 3.68089 12.392 3.62278 12.187 3.43091C11.0611 2.3932 9.31581 1.48093 7.59436 1.70693C4.66487 2.09065 2.20817 4.80531 2.93988 9.34634C3.48513 12.7076 6.41549 16.4646 10.9498 15.9204C13.4189 15.6252 14.5093 14.3348 15.2428 12.7316C15.5689 12.6025 16.0037 12.8617 16.115 13.2491C15.211 16.6629 12.2082 18.2698 9.73734 18.5622C7.4892 18.826 5.29496 18.3306 3.57968 17.0245C1.87679 15.7267 0.572437 13.7241 0.128817 10.9255C-0.608193 6.29962 1.76102 0.993901 8.6928 0.0797905C9.66223 -0.0511921 11.336 -0.0511921 12.5661 0.313161Z"/>
    </g>
    <g id="g124" transform="translate(0.0532864, 1.01899)" fill="none">
     <path id="path131" transform="translate(8.38329, -4.37092)" fill="url(#gradient8)" d="M15.8266 17.9984C15.4218 17.1083 15.2477 17.0022 14.0592 17.1526L8.10741 17.9034C7.1265 18.0279 6.90734 18.182 6.74739 19.0933L5.9441 23.6602C5.59857 25.624 5.46955 26.7927 5.52876 27.2576C5.59415 27.764 5.82303 27.9918 6.7792 27.9678L8.09592 27.9383C8.39992 28.1191 8.48917 28.7962 8.15513 29.0065C7.11943 29.0434 5.89638 29.1854 4.04414 29.3598C2.74951 29.5129 1.35149 29.7638 0.303413 29.9289C0.0480219 29.7887 -0.112812 29.1236 0.0957419 28.8856L1.36739 28.6071C2.29352 28.4097 3.0968 27.8461 3.45205 26.2641C3.9107 24.2477 4.65743 21.391 5.69843 16.5142L8.21346 4.84111C8.5634 3.28962 8.69331 2.48158 8.49094 1.84235C9.38436 1.42819 9.94728 0.598941 10.3043 0.00951936C10.5385 -0.0236875 10.8222 0.0205883 10.9406 0.293622C11.69 2.02407 12.571 3.82646 13.4061 5.55967L21.1721 21.6742C22.8556 25.1923 23.4715 25.7725 25.2416 25.7817L26.3568 25.7799C26.6696 25.9607 26.6882 26.6552 26.5106 26.8508C24.8342 26.9615 23.4088 27.086 21.5927 27.3C19.6583 27.5251 18.1436 27.7907 16.986 27.9706C16.6422 27.8359 16.5106 27.1607 16.7598 26.9135L17.905 26.6488C18.7357 26.4625 19.2624 26.1424 19.2032 25.7162C19.1396 25.2476 18.8329 24.506 18.3725 23.5255ZM7.52151 15.2681C7.33417 16.2633 7.37747 16.3002 8.47415 16.16L13.3169 15.5439C14.4621 15.3972 14.5196 15.2192 14.0088 14.139L10.9733 7.65078C10.527 6.70254 10.0251 5.64085 9.72724 5.1778L9.64771 5.18794C9.55757 5.41024 9.29953 6.45072 9.03353 7.74302Z"/>
     <path id="path138" transform="translate(30.992, -8.31751)" fill="url(#gradient9)" d="M2.38361 6.62465C2.02925 4.18118 1.95325 3.93766 0.651553 3.36115L0.217654 3.16929C0.0011458 3.07244 -0.0819225 2.49685 0.0992371 2.34281C0.959966 1.84379 2.79277 1.04129 4.18726 0.00449598C4.34721 -0.0176419 4.51865 0.0413925 4.62204 0.194513C4.75548 1.65008 4.95078 3.52258 5.21854 5.34526L6.38061 13.2402C6.48666 13.9541 6.674 14.1008 6.91437 14.0694C7.87407 13.302 9.38167 12.3325 11.3727 12.0706C16.0289 11.459 19.7634 14.6976 20.5013 19.3973C21.4009 25.1218 18.0314 29.6241 12.4861 30.2716C10.9617 30.4515 9.76697 30.2845 8.90978 30.1213C8.00486 29.9202 7.43664 29.7265 7.10967 29.7652C6.78181 29.8003 6.5061 30.1831 6.34526 30.5096C6.30992 30.5576 6.27015 30.5612 6.18796 30.5714C6.02625 30.5917 5.85127 30.5234 5.74434 30.362C5.69662 29.756 5.61974 28.9341 5.29719 26.7083ZM8.00398 24.2529C8.22314 25.7499 8.74629 27.0376 9.57609 27.8558C10.4068 28.6758 11.5909 29.0614 12.9085 28.9064C16.7942 28.4471 17.7963 24.8109 17.2272 21.1167C16.5459 16.7168 13.8532 13.6009 9.81557 14.1239C8.59871 14.2816 7.67082 14.7031 7.15916 15.156C6.7986 15.5038 6.78447 15.977 7.0266 17.6263Z"/>
     <path id="path145" transform="translate(54.5004, 0.943795)" fill="url(#gradient10)" d="M12.5718 0.314145C12.9615 0.569653 13.3742 1.21903 13.5014 1.94774C13.6313 2.72256 13.3459 3.59424 12.8386 3.65973C12.6257 3.68741 12.3994 3.62837 12.1927 3.43651C11.0677 2.39418 9.32149 1.481 7.60004 1.70607C4.66879 2.08887 2.21032 4.80445 2.94556 9.35102C3.48904 12.7151 6.41764 16.4794 10.9563 15.9398C13.429 15.6465 14.5186 14.3551 15.2512 12.751C15.5772 12.621 16.0156 12.8802 16.1251 13.2694C15.2193 16.6851 12.2165 18.2929 9.74302 18.5825C7.49311 18.8454 5.30064 18.3473 3.5836 17.0384C1.87805 15.7369 0.573699 13.7316 0.129195 10.9293C-0.609582 6.29783 1.76405 0.988428 8.6976 0.0770851C9.66791 -0.0492854 11.3452 -0.0520526 12.5718 0.314145Z"/>
    </g>
   </g>
   <g id="g3725" transform="translate(27.4701, 92.4522)" fill="none" filter="url(#filter5)">
    <path id="line265" transform="translate(13.5382, -0.248577)" fill="none" stroke="url(#gradient11)" stroke-width="1.25000000000" stroke-linecap="butt" stroke-linejoin="miter" stroke-miterlimit="2.00000000000" d="M0 8.03237L73.2503 0"/>
    <path id="line267" transform="translate(13.5382, -2.0934)" fill="none" stroke="url(#gradient12)" stroke-width="1.25000000000" stroke-linecap="butt" stroke-linejoin="miter" stroke-miterlimit="2.00000000000" d="M0 8.03237L73.2503 0"/>
    <path id="line269" transform="translate(13.5382, -3.93823)" fill="none" stroke="url(#gradient13)" stroke-width="1.25000000000" stroke-linecap="butt" stroke-linejoin="miter" stroke-miterlimit="2.00000000000" d="M0 8.03237L73.2503 0"/>
    <path id="line271" transform="translate(13.5382, 1.59625)" fill="none" stroke="url(#gradient14)" stroke-width="1.25000000000" stroke-linecap="butt" stroke-linejoin="miter" stroke-miterlimit="2.00000000000" d="M0 8.03237L73.2503 0"/>
    <path id="line273" transform="translate(13.5382, 3.44107)" fill="none" stroke="url(#gradient15)" stroke-width="1.25000000000" stroke-linecap="butt" stroke-linejoin="miter" stroke-miterlimit="2.00000000000" d="M0 8.03237L73.2503 0"/>
    <path id="line275" transform="translate(13.5382, 5.2859)" fill="none" stroke="url(#gradient16)" stroke-width="1.25000000000" stroke-linecap="butt" stroke-linejoin="miter" stroke-miterlimit="2.00000000000" d="M0 8.03237L73.2503 0"/>
    <path id="line277" transform="translate(13.5382, 7.13072)" fill="none" stroke="url(#gradient17)" stroke-width="1.25000000000" stroke-linecap="butt" stroke-linejoin="miter" stroke-miterlimit="2.00000000000" d="M0 8.03237L73.2503 0"/>
    <path id="line279" transform="translate(13.5382, 8.97555)" fill="none" stroke="url(#gradient18)" stroke-width="1.25000000000" stroke-linecap="round" stroke-linejoin="miter" stroke-miterlimit="2.00000000000" d="M0 8.03237L73.2503 0"/>
   </g>
   <path id="path104" transform="translate(35.0132, 94.3889)" fill="url(#gradient19)" filter="url(#filter6)" d="M4.423 0L3.57111 0C0.147636 0.315465 -1.40415 19.6031 1.5978 19.1253L2.09179 19.0681C-0.412633 17.9704 1.14711 0.301629 4.423 0Z"/>
   <g id="g4158" transform="translate(4.166, 1.30612)" fill="none">
    <g id="g4160" transform="" fill="none"/>
   </g>
  </g>
 </g>
</svg>
